# This file uses centimeters as units for non-parametric coordinates.

mtllib gema.mtl
g default
v -0.357139 -0.500000 0.130630
v 0.357139 -0.500000 0.130630
v -0.357139 0.500000 0.130630
v 0.357139 0.500000 0.130630
v -0.357139 0.500000 -0.130630
v 0.357139 0.500000 -0.130630
v -0.357139 -0.500000 -0.130630
v 0.357139 -0.500000 -0.130630
v 0.500000 0.500000 -0.003933
v -0.500000 0.500000 -0.003933
v -0.500000 -0.500000 -0.003933
v 0.500000 -0.500000 -0.003933
v -0.004849 1.007663 -0.003933
v -0.004849 -1.007663 -0.003933
v -0.301757 -0.422464 0.121953
v -0.004097 -0.422464 0.141101
v -0.004097 0.422464 0.141101
v -0.301757 0.422464 0.121953
v -0.004097 -0.851403 0.008258
v 0.301757 -0.422464 0.121953
v 0.301757 0.422464 0.121953
v -0.004097 0.851403 0.008258
v -0.300261 0.420371 -0.122345
v -0.004077 0.420371 -0.141398
v -0.004077 -0.420371 -0.141398
v -0.300261 -0.420371 -0.122345
v -0.004077 -0.847184 -0.015826
v 0.300261 0.420371 -0.122345
v 0.300261 -0.420371 -0.122345
v -0.004077 0.847184 -0.015826
vt 0.375000 0.000000
vt 0.625000 0.000000
vt 0.375000 0.250000
vt 0.625000 0.250000
vt 0.375000 0.500000
vt 0.625000 0.500000
vt 0.375000 0.750000
vt 0.625000 0.750000
vt 0.375000 1.000000
vt 0.625000 1.000000
vt 0.875000 0.000000
vt 0.875000 0.250000
vt 0.125000 0.000000
vt 0.125000 0.250000
vt 0.625000 0.377645
vt 0.752645 0.250000
vt 0.247355 0.250000
vt 0.375000 0.377645
vt 0.247355 0.000000
vt 0.375000 0.872355
vt 0.625000 0.872355
vt 0.752645 0.000000
vt 0.498788 0.250000
vt 0.498788 0.377645
vt 0.498788 0.500000
vt 0.498788 0.750000
vt 0.498788 0.872355
vt 0.498788 0.000000
vt 0.498788 1.000000
vt 0.375000 0.250000
vt 0.375000 0.000000
vt 0.375000 1.000000
vt 0.498788 0.872355
vt 0.625000 1.000000
vt 0.625000 0.000000
vt 0.625000 0.250000
vt 0.498788 0.377645
vt 0.375000 0.750000
vt 0.375000 0.500000
vt 0.498788 0.872355
vt 0.625000 0.500000
vt 0.625000 0.750000
vt 0.498788 0.377645
vn -0.064194 0.000000 0.997938
vn 0.000000 0.000000 1.000000
vn 0.000000 0.000000 1.000000
vn -0.064194 0.000000 0.997938
vn -0.569945 0.555898 0.605095
vn -0.715804 0.698162 0.013923
vn -0.715860 0.698216 0.006267
vn -0.064194 0.000000 -0.997937
vn -0.000000 0.000000 -1.000000
vn -0.000000 0.000000 -1.000000
vn -0.064194 0.000000 -0.997937
vn -0.061332 -0.295282 0.953440
vn 0.000638 -0.295838 0.955238
vn 0.000010 -0.295838 0.955238
vn 0.685648 0.000000 0.727934
vn 1.000000 0.000000 0.000000
vn 1.000000 0.000000 0.000000
vn 0.685648 0.000000 0.727934
vn -1.000000 0.000000 0.000000
vn -0.685648 0.000000 0.727934
vn -0.685648 0.000000 0.727934
vn -1.000000 0.000000 0.000000
vn -0.557040 0.543311 -0.628108
vn -0.663513 0.000000 -0.748165
vn -0.663513 0.000000 -0.748165
vn -0.061594 -0.281710 -0.957521
vn 0.000009 -0.282246 -0.959342
vn 0.000639 -0.282246 -0.959342
vn 0.663513 0.000000 -0.748165
vn 0.663513 0.000000 -0.748165
vn 0.709000 0.705071 0.013907
vn 0.566493 0.563354 0.601430
vn 0.709055 0.705125 0.006328
vn 0.553816 0.550747 -0.624473
vn 0.062481 0.000000 -0.998046
vn 0.062481 0.000000 -0.998046
vn 0.059950 -0.281738 -0.957617
vn 0.059694 -0.295311 0.953535
vn 0.062481 0.000000 0.998046
vn 0.062481 0.000000 0.998046
vn -0.061332 0.295282 0.953440
vn 0.000010 0.295838 0.955238
vn 0.000638 0.295838 0.955238
vn 0.059694 0.295311 0.953535
vn -0.715860 -0.698216 0.006267
vn -0.715804 -0.698162 0.013923
vn -0.569945 -0.555898 0.605095
vn 0.566493 -0.563353 0.601430
vn 0.709000 -0.705071 0.013907
vn 0.709055 -0.705125 0.006328
vn 0.000009 0.282246 -0.959342
vn 0.000639 0.282246 -0.959342
vn 0.059950 0.281738 -0.957617
vn -0.061594 0.281710 -0.957521
vn 0.553816 -0.550747 -0.624473
vn -0.557040 -0.543311 -0.628108
vn 0.154775 0.000000 0.987950
vn 0.154775 0.000000 0.987950
vn 0.154775 0.000000 0.987950
vn 0.154775 0.000000 0.987950
vn 0.257828 -0.076381 0.963167
vn 0.257828 -0.076381 0.963167
vn 0.257828 -0.076381 0.963167
vn 0.257828 -0.076381 0.963167
vn -0.254649 -0.073996 0.964198
vn -0.254649 -0.073996 0.964199
vn -0.254649 -0.073996 0.964198
vn -0.254649 -0.073996 0.964198
vn -0.154775 0.000000 0.987950
vn -0.154775 0.000000 0.987950
vn -0.154775 0.000000 0.987950
vn -0.154775 0.000000 0.987950
vn 0.257828 0.076381 0.963167
vn 0.257827 0.076381 0.963167
vn 0.257828 0.076381 0.963167
vn 0.257828 0.076381 0.963167
vn -0.254649 0.073996 0.964198
vn -0.254649 0.073996 0.964198
vn -0.254649 0.073996 0.964198
vn -0.254649 0.073996 0.964198
vn 0.144130 0.000000 -0.989559
vn 0.144130 0.000000 -0.989559
vn 0.144130 0.000000 -0.989559
vn 0.144130 0.000000 -0.989559
vn 0.242892 -0.072858 -0.967313
vn 0.242892 -0.072858 -0.967313
vn 0.242892 -0.072858 -0.967313
vn 0.242892 -0.072858 -0.967313
vn -0.144130 0.000000 -0.989559
vn -0.144130 0.000000 -0.989559
vn -0.144130 0.000000 -0.989559
vn -0.144130 0.000000 -0.989559
vn -0.239869 -0.070603 -0.968235
vn -0.239869 -0.070603 -0.968234
vn -0.239869 -0.070603 -0.968234
vn -0.239869 -0.070603 -0.968235
vn -0.239869 0.070603 -0.968234
vn -0.239869 0.070603 -0.968234
vn -0.239869 0.070603 -0.968235
vn -0.239869 0.070603 -0.968234
vn 0.242892 0.072858 -0.967313
vn 0.242892 0.072858 -0.967313
vn 0.242892 0.072858 -0.967313
vn 0.242892 0.072858 -0.967313
s 1
g pCube1
usemtl initialShadingGroup
f 15/31/1 16/28/2 17/23/3 18/30/4
s 2
f 3/3/5 13/24/6 10/18/7
s 3
f 23/39/8 24/25/9 25/26/10 26/38/11
s 4
f 15/32/12 19/33/13 16/29/14
s 5
f 2/2/15 12/22/16 9/16/17 4/4/18
s 6
f 11/19/19 1/1/20 3/3/21 10/17/22
s 2
f 10/18/7 13/24/6 5/5/23
s 6
f 7/13/24 11/19/19 10/17/22 5/14/25
s 7
f 26/38/26 25/26/27 27/40/28
s 5
f 9/16/17 12/22/16 8/11/29 6/12/30
s 8
f 13/24/31 4/4/32 9/15/33
f 6/6/34 13/24/31 9/15/33
s 3
f 25/26/10 24/25/9 28/41/35 29/42/36
s 7
f 27/40/28 25/26/27 29/42/37
s 4
f 16/29/14 19/33/13 20/34/38
s 1
f 17/23/3 16/28/2 20/35/39 21/36/40
s 9
f 18/30/41 17/23/42 22/37/43
f 17/23/42 21/36/44 22/37/43
s 10
f 11/20/45 14/27/46 1/9/47
s 11
f 2/10/48 14/27/49 12/21/50
s 12
f 24/25/51 30/43/52 28/41/53
f 23/39/54 30/43/52 24/25/51
s 11
f 14/27/49 8/8/55 12/21/50
s 10
f 7/7/56 14/27/46 11/20/45
s off
f 3/3/57 1/1/58 15/31/59 18/30/60
f 1/9/61 14/27/62 19/33/63 15/32/64
f 14/27/65 2/10/66 20/34/67 19/33/68
f 2/2/69 4/4/70 21/36/71 20/35/72
f 13/24/73 3/3/74 18/30/75 22/37/76
f 4/4/77 13/24/78 22/37/79 21/36/80
f 7/7/81 5/5/82 23/39/83 26/38/84
f 14/27/85 7/7/86 26/38/87 27/40/88
f 6/6/89 8/8/90 29/42/91 28/41/92
f 8/8/93 14/27/94 27/40/95 29/42/96
f 13/24/97 6/6/98 28/41/99 30/43/100
f 5/5/101 13/24/102 30/43/103 23/39/104
