# This file uses centimeters as units for non-parametric coordinates.

mtllib pozoDePrueba.mtl
g default
v 14.051866 0.009672 -0.000000
v 13.973123 0.009672 -0.497161
v 13.744603 0.009672 -0.945656
v 13.388676 0.009672 -1.301583
v 12.940181 0.009672 -1.530103
v 12.443020 0.009672 -1.608845
v 11.945859 0.009672 -1.530103
v 11.497364 0.009672 -1.301583
v 11.141437 0.009672 -0.945656
v 10.912917 0.009672 -0.497161
v 10.834174 0.009672 -0.000000
v 10.912916 0.009672 0.497161
v 11.141437 0.009672 0.945656
v 11.497364 0.009672 1.301584
v 11.945859 0.009672 1.530103
v 12.443020 0.009672 1.608846
v 12.940181 0.009672 1.530103
v 13.388676 0.009672 1.301584
v 13.744604 0.009672 0.945656
v 13.973124 0.009672 0.497161
v 14.051866 2.020729 0.000000
v 13.973123 2.020729 -0.497161
v 13.744603 2.020729 -0.945656
v 13.388676 2.020729 -1.301583
v 12.940181 2.020729 -1.530103
v 12.443020 2.020729 -1.608845
v 11.945859 2.020729 -1.530103
v 11.497364 2.020729 -1.301583
v 11.141437 2.020729 -0.945656
v 10.912917 2.020729 -0.497161
v 10.834174 2.020729 0.000000
v 10.912916 2.020729 0.497161
v 11.141437 2.020729 0.945656
v 11.497364 2.020729 1.301584
v 11.945859 2.020729 1.530103
v 12.443020 2.020729 1.608846
v 12.940181 2.020729 1.530103
v 13.388676 2.020729 1.301584
v 13.744604 2.020729 0.945656
v 13.973124 2.020729 0.497161
v 14.454077 2.020729 0.000000
v 14.355648 2.020729 -0.621451
v 14.069998 2.020729 -1.182070
v 13.625090 2.020729 -1.626979
v 13.064470 2.020729 -1.912629
v 12.443020 2.020729 -2.011057
v 11.821569 2.020729 -1.912629
v 11.260950 2.020729 -1.626979
v 10.816040 2.020729 -1.182070
v 10.530391 2.020729 -0.621451
v 10.431963 2.020729 0.000000
v 10.530391 2.020729 0.621451
v 10.816040 2.020729 1.182070
v 11.260950 2.020729 1.626980
v 11.821568 2.020729 1.912630
v 12.443020 2.020729 2.011058
v 13.064471 2.020729 1.912630
v 13.625090 2.020729 1.626980
v 14.070000 2.020729 1.182070
v 14.355650 2.020729 0.621451
v 14.454077 0.009672 -0.000000
v 14.355648 0.009672 -0.621451
v 14.069998 0.009672 -1.182070
v 13.625090 0.009672 -1.626979
v 13.064470 0.009672 -1.912629
v 12.443020 0.009672 -2.011057
v 11.821569 0.009672 -1.912629
v 11.260950 0.009672 -1.626979
v 10.816040 0.009672 -1.182070
v 10.530391 0.009672 -0.621451
v 10.431963 0.009672 -0.000000
v 10.530391 0.009672 0.621451
v 10.816040 0.009672 1.182070
v 11.260950 0.009672 1.626980
v 11.821568 0.009672 1.912630
v 12.443020 0.009672 2.011058
v 13.064471 0.009672 1.912630
v 13.625090 0.009672 1.626980
v 14.070000 0.009672 1.182070
v 14.355650 0.009672 0.621451
v 10.450526 4.048501 1.316910
v 14.418530 4.048501 1.316910
v 10.450526 4.126150 1.369469
v 14.418530 4.126150 1.369469
v 10.450526 4.123455 -1.373066
v 14.418530 4.123455 -1.373066
v 10.450526 4.051196 -1.313312
v 14.418530 4.051196 -1.313312
v 14.418530 4.904432 -0.035693
v 10.450526 4.904432 -0.035693
v 10.450526 4.810667 -0.035693
v 14.418530 4.810667 -0.035693
v 14.418530 4.904432 0.108769
v 10.450526 4.904432 0.108769
v 10.450526 4.810667 0.108769
v 14.418530 4.810667 0.108769
v 14.418530 4.904432 -0.181589
v 10.450526 4.904432 -0.181589
v 10.450526 4.810667 -0.181589
v 14.418530 4.810667 -0.181589
v 14.110998 1.822616 0.119932
v 14.350863 1.822616 0.119932
v 14.110998 4.758769 0.119932
v 14.350863 4.758769 0.119932
v 14.110998 4.758769 -0.119932
v 14.350863 4.758769 -0.119932
v 14.110998 1.822616 -0.119932
v 14.350863 1.822616 -0.119932
v 10.547870 1.822616 0.119932
v 10.787734 1.822616 0.119932
v 10.547870 4.758769 0.119932
v 10.787734 4.758769 0.119932
v 10.547870 4.758769 -0.119932
v 10.787734 4.758769 -0.119932
v 10.547870 1.822616 -0.119932
v 10.787734 1.822616 -0.119932
vt 1.096549 0.061366
vt 0.996549 0.061366
vt 0.996549 0.450993
vt 1.096549 0.450993
vt 1.196549 0.061366
vt 1.196549 0.450993
vt 1.296549 0.061366
vt 1.296549 0.450993
vt 1.396549 0.061366
vt 1.396549 0.450993
vt 1.496549 0.061366
vt -0.403451 0.061366
vt -0.403451 0.450993
vt -0.303451 0.061366
vt -0.303451 0.450993
vt -0.203451 0.061366
vt -0.203451 0.450993
vt -0.103451 0.061366
vt -0.103451 0.450993
vt -0.003451 0.061366
vt -0.003451 0.450993
vt 0.096549 0.061366
vt 0.096549 0.450993
vt 0.196549 0.061366
vt 0.196549 0.450993
vt 0.296549 0.061366
vt 0.296549 0.450993
vt 0.396549 0.061366
vt 0.396549 0.450993
vt 0.496549 0.061366
vt 0.496549 0.450993
vt 0.596549 0.061366
vt 0.596549 0.450993
vt 0.696549 0.061366
vt 0.696549 0.450993
vt 0.796549 0.061366
vt 0.796549 0.450993
vt 0.896549 0.061366
vt 0.896549 0.450993
vt 0.996549 0.450993
vt 1.096549 0.450993
vt 1.196549 0.450993
vt 1.296549 0.450993
vt 1.396549 0.450993
vt -0.403451 0.450993
vt -0.303451 0.450993
vt -0.203451 0.450993
vt -0.103451 0.450993
vt -0.003451 0.450993
vt 0.096549 0.450993
vt 0.196549 0.450993
vt 0.296549 0.450993
vt 0.396549 0.450993
vt 0.496549 0.450993
vt 0.596549 0.450993
vt 0.696549 0.450993
vt 0.796549 0.450993
vt 0.896549 0.450993
vt 0.996549 0.061366
vt 1.096549 0.061366
vt 1.196549 0.061366
vt 1.296549 0.061366
vt 1.396549 0.061366
vt -0.403451 0.061366
vt -0.303451 0.061366
vt -0.203451 0.061366
vt -0.103451 0.061366
vt -0.003451 0.061366
vt 0.096549 0.061366
vt 0.196549 0.061366
vt 0.296549 0.061366
vt 0.396549 0.061366
vt 0.496549 0.061366
vt 0.596549 0.061366
vt 0.696549 0.061366
vt 0.796549 0.061366
vt 0.896549 0.061366
vt 1.596549 0.450993
vt 1.496549 0.450993
vt 1.596549 0.450993
vt 1.496549 0.450993
vt 1.596549 0.061366
vt 1.496549 0.061366
vt 1.596549 0.061366
vt 0.860616 0.342419
vt 0.880193 0.280029
vt 0.980193 0.280029
vt 0.955721 0.358017
vt 0.803800 0.398703
vt 0.884701 0.428371
vt 0.715307 0.443369
vt 0.774086 0.484204
vt 0.603800 0.472047
vt 0.634702 0.520052
vt 0.480193 0.481929
vt 0.480193 0.532404
vt 0.356586 0.472047
vt 0.325685 0.520052
vt 0.245079 0.443369
vt 0.186301 0.484204
vt 0.156586 0.398703
vt 0.075685 0.428371
vt 0.099771 0.342419
vt 0.004665 0.358017
vt 0.080193 0.280029
vt -0.019807 0.280029
vt 0.099770 0.217638
vt 0.004665 0.202040
vt 0.156586 0.161355
vt 0.075685 0.131686
vt 0.245079 0.116688
vt 0.186301 0.075853
vt 0.356586 0.088010
vt 0.325685 0.040006
vt 0.480193 0.078129
vt 0.480193 0.027654
vt 0.603800 0.088010
vt 0.634702 0.040006
vt 0.715307 0.116688
vt 0.774086 0.075853
vt 0.803800 0.161355
vt 0.884702 0.131686
vt 0.860616 0.217638
vt 0.955722 0.202040
vt -0.053472 0.525573
vt 0.946528 0.525573
vt 0.946528 0.518490
vt -0.053472 0.518490
vt 0.946528 0.688401
vt -0.053472 0.688401
vt -0.053472 0.888115
vt 0.946528 0.888115
vt 0.946528 0.880062
vt -0.053472 0.880062
vt -0.053472 0.688401
vt 0.946528 0.688401
vt -0.053472 0.707871
vt 0.946528 0.707871
vt 0.946528 0.727534
vt -0.053472 0.727534
vt -0.053472 0.727534
vt -0.053472 0.707871
vt 0.946528 0.727534
vt 0.946528 0.707871
vt -0.131104 0.521109
vt 0.368896 0.521109
vt 0.368896 0.816595
vt -0.131104 0.816595
vt 1.868896 0.816595
vt 2.368896 0.816595
vt 2.868896 0.816595
vt 1.368896 0.816595
vt 0.868896 0.816595
vt 0.868896 0.521109
vt 1.368896 0.521109
vt 1.868896 0.521109
vt -0.131104 0.521109
vt 0.368896 0.521109
vt 0.368896 0.816595
vt -0.131104 0.816595
vt 1.868896 0.816595
vt 2.368896 0.816595
vt 2.868896 0.816595
vt 1.368896 0.816595
vt 0.868896 0.816595
vt 0.868896 0.521109
vt 1.368896 0.521109
vt 1.868896 0.521109
vn -0.951056 0.000000 0.309017
vn -1.000000 0.000000 0.000001
vn -1.000000 0.000000 0.000001
vn -0.951056 0.000000 0.309017
vn -0.809017 0.000000 0.587785
vn -0.809017 0.000000 0.587785
vn -0.587786 0.000000 0.809017
vn -0.587786 0.000000 0.809017
vn -0.309017 0.000000 0.951057
vn -0.309017 0.000000 0.951057
vn 0.000000 0.000000 1.000000
vn 0.000000 0.000000 1.000000
vn 0.309017 0.000000 0.951057
vn 0.309017 0.000000 0.951057
vn 0.587785 0.000000 0.809017
vn 0.587785 0.000000 0.809017
vn 0.809017 0.000000 0.587785
vn 0.809017 0.000000 0.587785
vn 0.951056 0.000000 0.309017
vn 0.951056 0.000000 0.309017
vn 1.000000 0.000000 0.000001
vn 1.000000 0.000000 0.000001
vn 0.951057 0.000000 -0.309017
vn 0.951057 0.000000 -0.309017
vn 0.809017 0.000000 -0.587785
vn 0.809017 0.000000 -0.587785
vn 0.587786 0.000000 -0.809017
vn 0.587786 0.000000 -0.809017
vn 0.309017 0.000000 -0.951057
vn 0.309017 0.000000 -0.951057
vn 0.000000 0.000000 -1.000000
vn 0.000000 0.000000 -1.000000
vn -0.309017 0.000000 -0.951057
vn -0.309017 0.000000 -0.951057
vn -0.587785 0.000000 -0.809017
vn -0.587785 0.000000 -0.809017
vn -0.809017 0.000000 -0.587785
vn -0.809017 0.000000 -0.587785
vn -0.951057 0.000000 -0.309016
vn -0.951057 0.000000 -0.309016
vn 0.000000 1.000000 0.000000
vn 0.000000 1.000000 0.000000
vn 0.000000 1.000000 0.000000
vn 0.000000 1.000000 0.000000
vn 0.000000 1.000000 0.000000
vn 0.000000 1.000000 0.000000
vn 0.000000 1.000000 0.000000
vn 0.000000 1.000000 0.000000
vn 0.000000 1.000000 0.000000
vn 0.000000 1.000000 0.000000
vn 0.000000 1.000000 0.000000
vn 0.000000 1.000000 0.000000
vn 0.000000 1.000000 0.000000
vn 0.000000 1.000000 0.000000
vn 0.000000 1.000000 -0.000000
vn 0.000000 1.000000 -0.000000
vn 0.000000 1.000000 0.000000
vn 0.000000 1.000000 0.000000
vn 0.000000 1.000000 0.000000
vn 0.000000 1.000000 0.000000
vn 0.000000 1.000000 0.000000
vn 0.000000 1.000000 0.000000
vn 0.000000 1.000000 -0.000000
vn 0.000000 1.000000 -0.000000
vn 0.000000 1.000000 0.000000
vn 0.000000 1.000000 0.000000
vn 0.000000 1.000000 0.000000
vn 0.000000 1.000000 -0.000000
vn 0.000000 1.000000 -0.000000
vn 0.000000 1.000000 -0.000000
vn 0.000000 1.000000 0.000000
vn 0.000000 1.000000 0.000000
vn 0.000000 1.000000 -0.000000
vn 0.000000 1.000000 -0.000000
vn 0.000000 1.000000 0.000000
vn 0.000000 1.000000 -0.000000
vn 0.000000 1.000000 0.000000
vn 0.000000 1.000000 0.000000
vn 0.000000 1.000000 0.000000
vn 0.000000 1.000000 0.000000
vn 0.951056 0.000000 -0.309018
vn 1.000000 -0.000000 -0.000002
vn 1.000000 -0.000000 -0.000002
vn 0.951056 0.000000 -0.309018
vn 0.809017 0.000000 -0.587785
vn 0.809017 0.000000 -0.587785
vn 0.587786 0.000000 -0.809017
vn 0.587786 0.000000 -0.809017
vn 0.309017 0.000000 -0.951057
vn 0.309017 0.000000 -0.951057
vn 0.000000 0.000000 -1.000000
vn 0.000000 0.000000 -1.000000
vn -0.309017 0.000000 -0.951057
vn -0.309017 0.000000 -0.951057
vn -0.587785 0.000000 -0.809017
vn -0.587785 0.000000 -0.809017
vn -0.809017 0.000000 -0.587785
vn -0.809017 0.000000 -0.587785
vn -0.951057 -0.000000 -0.309017
vn -0.951057 -0.000000 -0.309017
vn -1.000000 -0.000000 0.000000
vn -1.000000 -0.000000 0.000000
vn -0.951057 0.000000 0.309016
vn -0.951057 0.000000 0.309016
vn -0.809017 0.000000 0.587785
vn -0.809017 0.000000 0.587785
vn -0.587786 0.000000 0.809017
vn -0.587786 0.000000 0.809017
vn -0.309017 0.000000 0.951057
vn -0.309017 0.000000 0.951057
vn -0.000000 0.000000 1.000000
vn -0.000000 0.000000 1.000000
vn 0.309017 0.000000 0.951057
vn 0.309017 0.000000 0.951057
vn 0.587786 0.000000 0.809017
vn 0.587786 0.000000 0.809017
vn 0.809017 0.000000 0.587786
vn 0.809017 0.000000 0.587786
vn 0.951057 -0.000000 0.309016
vn 0.951057 -0.000000 0.309016
vn 0.000000 -1.000000 -0.000000
vn 0.000000 -1.000000 -0.000000
vn 0.000000 -1.000000 -0.000000
vn 0.000000 -1.000000 -0.000000
vn 0.000000 -1.000000 0.000000
vn 0.000000 -1.000000 0.000000
vn 0.000000 -1.000000 0.000000
vn 0.000000 -1.000000 0.000000
vn 0.000000 -1.000000 -0.000000
vn 0.000000 -1.000000 -0.000000
vn 0.000000 -1.000000 0.000000
vn 0.000000 -1.000000 0.000000
vn 0.000000 -1.000000 0.000000
vn 0.000000 -1.000000 0.000000
vn 0.000000 -1.000000 0.000000
vn 0.000000 -1.000000 0.000000
vn 0.000000 -1.000000 0.000000
vn 0.000000 -1.000000 0.000000
vn 0.000000 -1.000000 0.000000
vn 0.000000 -1.000000 0.000000
vn 0.000000 -1.000000 0.000000
vn 0.000000 -1.000000 0.000000
vn 0.000000 -1.000000 -0.000000
vn 0.000000 -1.000000 -0.000000
vn 0.000000 -1.000000 -0.000000
vn 0.000000 -1.000000 -0.000000
vn 0.000000 -1.000000 0.000000
vn 0.000000 -1.000000 0.000000
vn 0.000000 -1.000000 0.000000
vn 0.000000 -1.000000 0.000000
vn 0.000000 -1.000000 0.000000
vn 0.000000 -1.000000 0.000000
vn 0.000000 -1.000000 0.000000
vn 0.000000 -1.000000 0.000000
vn 0.000000 -1.000000 -0.000000
vn 0.000000 -1.000000 -0.000000
vn 0.000000 -1.000000 0.000000
vn 0.000000 -1.000000 0.000000
vn 0.000000 -1.000000 0.000000
vn 0.000000 -1.000000 0.000000
vn 0.000000 -0.560542 0.828126
vn 0.000000 -0.560542 0.828126
vn 0.000000 -0.560542 0.828126
vn 0.000000 -0.560542 0.828126
vn 0.000000 0.850914 0.525304
vn 0.000000 0.850914 0.525304
vn 0.000000 0.874781 0.484518
vn 0.000000 0.874781 0.484518
vn 0.000000 -0.637277 -0.770635
vn 0.000000 -0.637277 -0.770635
vn 0.000000 -0.637277 -0.770635
vn 0.000000 -0.637277 -0.770635
vn 0.000000 -0.871210 -0.490911
vn 0.000000 -0.871210 -0.490911
vn 0.000000 -0.845764 -0.533558
vn 0.000000 -0.845764 -0.533558
vn 1.000000 0.000009 0.000000
vn 1.000000 0.000008 0.000000
vn 1.000000 0.000008 0.000000
vn 1.000000 0.000009 0.000000
vn -1.000000 0.000000 0.000000
vn -1.000000 0.000000 0.000000
vn -1.000000 0.000000 0.000000
vn -1.000000 0.000000 0.000000
vn 0.000000 1.000000 0.000000
vn 0.000000 1.000000 0.000000
vn 0.000000 0.863542 -0.504277
vn 0.000000 0.863542 -0.504277
vn -1.000000 -0.000002 0.000000
vn -1.000000 0.000001 0.000000
vn -1.000000 0.000001 0.000000
vn -1.000000 -0.000002 0.000000
vn 0.000000 -0.859593 0.510979
vn 0.000000 -0.859593 0.510979
vn 0.000000 -1.000000 0.000000
vn 0.000000 -1.000000 0.000000
vn 1.000000 0.000000 0.000000
vn 1.000000 0.000000 0.000000
vn 1.000000 0.000000 0.000000
vn 1.000000 0.000000 0.000000
vn 0.000000 0.836347 -0.548200
vn 0.000000 0.836347 -0.548200
vn -1.000000 -0.000002 0.000000
vn -1.000000 -0.000002 0.000000
vn 0.000000 -0.830357 0.557232
vn 0.000000 -0.830357 0.557232
vn 1.000000 0.000000 0.000000
vn 1.000000 0.000000 0.000000
vn 0.000000 0.000000 1.000000
vn 0.000000 0.000000 1.000000
vn 0.000000 0.000000 1.000000
vn 0.000000 0.000000 1.000000
vn 0.000000 1.000000 0.000000
vn 0.000000 1.000000 0.000000
vn 0.000000 1.000000 0.000000
vn 0.000000 1.000000 0.000000
vn 0.000000 0.000000 -1.000000
vn 0.000000 0.000000 -1.000000
vn 0.000000 0.000000 -1.000000
vn 0.000000 0.000000 -1.000000
vn 0.000000 -1.000000 0.000000
vn 0.000000 -1.000000 0.000000
vn 0.000000 -1.000000 0.000000
vn 0.000000 -1.000000 0.000000
vn 1.000000 0.000000 0.000000
vn 1.000000 0.000000 0.000000
vn 1.000000 0.000000 0.000000
vn 1.000000 0.000000 0.000000
vn -1.000000 0.000000 0.000000
vn -1.000000 0.000000 0.000000
vn -1.000000 0.000000 0.000000
vn -1.000000 0.000000 0.000000
vn 0.000000 0.000000 1.000000
vn 0.000000 0.000000 1.000000
vn 0.000000 0.000000 1.000000
vn 0.000000 0.000000 1.000000
vn 0.000000 1.000000 0.000000
vn 0.000000 1.000000 0.000000
vn 0.000000 1.000000 0.000000
vn 0.000000 1.000000 0.000000
vn 0.000000 0.000000 -1.000000
vn 0.000000 0.000000 -1.000000
vn 0.000000 0.000000 -1.000000
vn 0.000000 0.000000 -1.000000
vn 0.000000 -1.000000 0.000000
vn 0.000000 -1.000000 0.000000
vn 0.000000 -1.000000 0.000000
vn 0.000000 -1.000000 0.000000
vn 1.000000 0.000000 0.000000
vn 1.000000 0.000000 0.000000
vn 1.000000 0.000000 0.000000
vn 1.000000 0.000000 0.000000
vn -1.000000 0.000000 0.000000
vn -1.000000 0.000000 0.000000
vn -1.000000 0.000000 0.000000
vn -1.000000 0.000000 0.000000
s 1
g pPipe5
usemtl lambert3SG
f 2/1/1 1/2/2 21/3/3 22/4/4
f 3/5/5 2/1/1 22/4/4 23/6/6
f 4/7/7 3/5/5 23/6/6 24/8/8
f 5/9/9 4/7/7 24/8/8 25/10/10
f 6/11/11 5/9/9 25/10/10 26/79/12
f 7/84/13 6/11/11 26/79/12 27/78/14
f 8/14/15 7/12/13 27/13/14 28/15/16
f 9/16/17 8/14/15 28/15/16 29/17/18
f 10/18/19 9/16/17 29/17/18 30/19/20
f 11/20/21 10/18/19 30/19/20 31/21/22
f 12/22/23 11/20/21 31/21/22 32/23/24
f 13/24/25 12/22/23 32/23/24 33/25/26
f 14/26/27 13/24/25 33/25/26 34/27/28
f 15/28/29 14/26/27 34/27/28 35/29/30
f 16/30/31 15/28/29 35/29/30 36/31/32
f 17/32/33 16/30/31 36/31/32 37/33/34
f 18/34/35 17/32/33 37/33/34 38/35/36
f 19/36/37 18/34/35 38/35/36 39/37/38
f 20/38/39 19/36/37 39/37/38 40/39/40
f 1/2/2 20/38/39 40/39/40 21/3/3
s 2
f 22/85/41 21/86/42 41/87/43 42/88/44
f 23/89/45 22/85/41 42/88/44 43/90/46
f 24/91/47 23/89/45 43/90/46 44/92/48
f 25/93/49 24/91/47 44/92/48 45/94/50
f 26/95/51 25/93/49 45/94/50 46/96/52
f 27/97/53 26/95/51 46/96/52 47/98/54
f 28/99/55 27/97/53 47/98/54 48/100/56
f 29/101/57 28/99/55 48/100/56 49/102/58
f 30/103/59 29/101/57 49/102/58 50/104/60
f 31/105/61 30/103/59 50/104/60 51/106/62
f 32/107/63 31/105/61 51/106/62 52/108/64
f 33/109/65 32/107/63 52/108/64 53/110/66
f 34/111/67 33/109/65 53/110/66 54/112/68
f 35/113/69 34/111/67 54/112/68 55/114/70
f 36/115/71 35/113/69 55/114/70 56/116/72
f 37/117/73 36/115/71 56/116/72 57/118/74
f 38/119/75 37/117/73 57/118/74 58/120/76
f 39/121/77 38/119/75 58/120/76 59/122/78
f 40/123/79 39/121/77 59/122/78 60/124/80
f 21/86/42 40/123/79 60/124/80 41/87/43
s 3
f 42/41/81 41/40/82 61/59/83 62/60/84
f 43/42/85 42/41/81 62/60/84 63/61/86
f 44/43/87 43/42/85 63/61/86 64/62/88
f 45/44/89 44/43/87 64/62/88 65/63/90
f 46/81/91 45/44/89 65/63/90 66/83/92
f 47/80/93 46/81/91 66/83/92 67/82/94
f 48/46/95 47/45/93 67/64/94 68/65/96
f 49/47/97 48/46/95 68/65/96 69/66/98
f 50/48/99 49/47/97 69/66/98 70/67/100
f 51/49/101 50/48/99 70/67/100 71/68/102
f 52/50/103 51/49/101 71/68/102 72/69/104
f 53/51/105 52/50/103 72/69/104 73/70/106
f 54/52/107 53/51/105 73/70/106 74/71/108
f 55/53/109 54/52/107 74/71/108 75/72/110
f 56/54/111 55/53/109 75/72/110 76/73/112
f 57/55/113 56/54/111 76/73/112 77/74/114
f 58/56/115 57/55/113 77/74/114 78/75/116
f 59/57/117 58/56/115 78/75/116 79/76/118
f 60/58/119 59/57/117 79/76/118 80/77/120
f 41/40/82 60/58/119 80/77/120 61/59/83
s 4
f 62/60/121 61/59/122 1/2/123 2/1/124
f 63/61/125 62/60/121 2/1/124 3/5/126
f 64/62/127 63/61/125 3/5/126 4/7/128
f 65/63/129 64/62/127 4/7/128 5/9/130
f 66/83/131 65/63/129 5/9/130 6/11/132
f 67/82/133 66/83/131 6/11/132 7/84/134
f 68/65/135 67/64/133 7/12/134 8/14/136
f 69/66/137 68/65/135 8/14/136 9/16/138
f 70/67/139 69/66/137 9/16/138 10/18/140
f 71/68/141 70/67/139 10/18/140 11/20/142
f 72/69/143 71/68/141 11/20/142 12/22/144
f 73/70/145 72/69/143 12/22/144 13/24/146
f 74/71/147 73/70/145 13/24/146 14/26/148
f 75/72/149 74/71/147 14/26/148 15/28/150
f 76/73/151 75/72/149 15/28/150 16/30/152
f 77/74/153 76/73/151 16/30/152 17/32/154
f 78/75/155 77/74/153 17/32/154 18/34/156
f 79/76/157 78/75/155 18/34/156 19/36/158
f 80/77/159 79/76/157 19/36/158 20/38/160
f 61/59/122 80/77/159 20/38/160 1/2/123
s off
f 81/125/161 82/126/162 84/127/163 83/128/164
s 5
f 83/128/165 84/127/166 93/129/167 94/130/168
s off
f 85/131/169 86/132/170 88/133/171 87/134/172
s 6
f 95/135/173 96/136/174 82/126/175 81/125/176
s 7
f 82/126/177 96/136/178 93/129/179 84/127/180
s 8
f 95/135/181 81/125/182 83/128/183 94/130/184
s 5
f 90/137/185 89/138/186 97/139/187 98/140/188
s 8
f 99/141/189 91/142/190 90/137/191 98/140/192
s 6
f 99/141/193 100/143/194 92/144/195 91/142/196
s 7
f 89/138/197 92/144/198 100/143/199 97/139/200
s 5
f 94/130/168 93/129/167 89/138/186 90/137/185
s 8
f 91/142/190 95/135/181 94/130/184 90/137/191
s 6
f 91/142/196 92/144/195 96/136/174 95/135/173
s 7
f 93/129/179 96/136/178 92/144/198 89/138/197
s 5
f 98/140/188 97/139/187 86/132/201 85/131/202
s 8
f 87/134/203 99/141/189 98/140/192 85/131/204
s 6
f 87/134/205 88/133/206 100/143/194 99/141/193
s 7
f 97/139/200 100/143/199 88/133/207 86/132/208
s off
f 101/145/209 102/146/210 104/147/211 103/148/212
f 103/149/213 104/150/214 106/151/215 105/152/216
f 105/152/217 106/153/218 108/154/219 107/155/220
f 107/155/221 108/154/222 102/146/223 101/156/224
f 102/146/225 108/154/226 106/153/227 104/147/228
f 107/155/229 101/156/230 103/149/231 105/152/232
f 109/157/233 110/158/234 112/159/235 111/160/236
f 111/161/237 112/162/238 114/163/239 113/164/240
f 113/164/241 114/165/242 116/166/243 115/167/244
f 115/167/245 116/166/246 110/158/247 109/168/248
f 110/158/249 116/166/250 114/165/251 112/159/252
f 115/167/253 109/168/254 111/161/255 113/164/256
