# This file uses centimeters as units for non-parametric coordinates.

v 3.122804 -0.232481 0.317356
v 4.645178 -0.232481 0.317356
v 3.122804 1.765543 0.191962
v 4.645178 1.765543 0.191962
v 3.122804 1.765543 -0.191962
v 4.645178 1.765543 -0.191962
v 3.122804 -0.232481 -0.317356
v 4.645178 -0.232481 -0.317356
v 2.581199 2.299759 0.319830
v 2.581199 -0.236678 0.528748
v 3.220859 2.299759 0.319830
v 3.220859 -0.236678 0.528748
v 3.220859 2.299759 -0.319830
v 3.220859 -0.236678 -0.528748
v 2.581199 2.299759 -0.319830
v 2.581199 -0.236678 -0.528748
v 1.170525 -0.232481 0.317356
v 2.692899 -0.232481 0.317356
v 1.170525 1.765543 0.191962
v 2.692899 1.765543 0.191962
v 1.170525 1.765543 -0.191962
v 2.692899 1.765543 -0.191962
v 1.170525 -0.232481 -0.317356
v 2.692899 -0.232481 -0.317356
v 0.628920 2.299759 0.319830
v 0.628919 -0.236678 0.528748
v 1.268579 2.299759 0.319830
v 1.268579 -0.236678 0.528748
v 1.268579 2.299759 -0.319830
v 1.268579 -0.236678 -0.528748
v 0.628920 2.299759 -0.319830
v 0.628919 -0.236678 -0.528748
vt 0.006170 0.008067
vt 0.170436 0.007352
vt 0.007109 0.223657
vt 0.171375 0.222941
vt 0.171954 0.223135
vt 0.171555 0.264367
vt 0.171015 0.007546
vt 0.006749 0.008261
vt 0.007289 0.265083
vt 0.007688 0.223851
vt 0.178040 0.272726
vt 0.178925 0.007879
vt 0.245716 0.008102
vt 0.244831 0.272949
vt 0.178118 0.272949
vt 0.179003 0.008102
vt 0.245794 0.008326
vt 0.244909 0.273172
vt 0.176536 0.273172
vt 0.177421 0.008326
vt 0.244212 0.008549
vt 0.243327 0.273396
vt 0.177486 0.273396
vt 0.178371 0.008549
vt 0.245162 0.008772
vt 0.244277 0.273619
vt 0.177816 0.339517
vt 0.244608 0.339740
vt 0.006170 0.008067
vt 0.170436 0.007352
vt 0.171375 0.222941
vt 0.007109 0.223657
vt 0.171555 0.264367
vt 0.007289 0.265083
vt 0.171954 0.223135
vt 0.007688 0.223851
vt 0.006749 0.008261
vt 0.171015 0.007546
vt 0.178197 0.272737
vt 0.179104 0.007857
vt 0.245716 0.008102
vt 0.244831 0.272949
vt 0.178118 0.272949
vt 0.179003 0.008102
vt 0.245794 0.008326
vt 0.244909 0.273172
vt 0.176536 0.273172
vt 0.177421 0.008326
vt 0.243986 0.008548
vt 0.243101 0.273395
vt 0.180311 0.272589
vt 0.172645 0.019839
vt 0.250799 0.020084
vt 0.242127 0.272014
vt 0.177923 0.339422
vt 0.244608 0.339740
vn 0.000000 0.062635 0.998037
vn 0.000000 0.062635 0.998037
vn 0.000000 0.062635 0.998037
vn 0.000000 0.062635 0.998037
vn 0.000000 1.000000 0.000000
vn 0.000000 1.000000 0.000000
vn 0.000000 1.000000 0.000000
vn 0.000000 1.000000 0.000000
vn 0.000000 0.062635 -0.998037
vn 0.000000 0.062635 -0.998037
vn 0.000000 0.062635 -0.998037
vn 0.000000 0.062635 -0.998037
vn 0.000000 0.082089 0.996625
vn 0.000000 0.082089 0.996625
vn 0.000000 0.082089 0.996625
vn 0.000000 0.082089 0.996625
vn 1.000000 0.000000 0.000000
vn 1.000000 0.000000 0.000000
vn 1.000000 0.000000 0.000000
vn 1.000000 0.000000 0.000000
vn 0.000000 0.082089 -0.996625
vn 0.000000 0.082089 -0.996625
vn 0.000000 0.082089 -0.996625
vn 0.000000 0.082089 -0.996625
vn -1.000000 -0.000000 0.000000
vn -1.000000 0.000000 0.000000
vn -1.000000 -0.000000 0.000000
vn -1.000000 0.000000 0.000000
vn 0.000000 1.000000 0.000000
vn 0.000000 1.000000 0.000000
vn 0.000000 1.000000 0.000000
vn 0.000000 1.000000 0.000000
vn 0.000000 0.062635 0.998036
vn 0.000000 0.062635 0.998037
vn 0.000000 0.062635 0.998037
vn 0.000000 0.062635 0.998037
vn 0.000000 1.000000 0.000000
vn 0.000000 1.000000 0.000000
vn 0.000000 1.000000 0.000000
vn 0.000000 1.000000 0.000000
vn 0.000000 0.062635 -0.998037
vn 0.000000 0.062635 -0.998037
vn 0.000000 0.062635 -0.998037
vn 0.000000 0.062635 -0.998036
vn 0.000000 0.082089 0.996625
vn 0.000000 0.082089 0.996625
vn 0.000000 0.082089 0.996625
vn 0.000000 0.082089 0.996625
vn 1.000000 0.000000 0.000000
vn 1.000000 0.000000 0.000000
vn 1.000000 0.000000 0.000000
vn 1.000000 0.000000 0.000000
vn 0.000000 0.082089 -0.996625
vn 0.000000 0.082089 -0.996625
vn 0.000000 0.082089 -0.996625
vn 0.000000 0.082089 -0.996625
vn -1.000000 0.000000 0.000000
vn -1.000000 0.000000 0.000000
vn -1.000000 0.000000 0.000000
vn -1.000000 0.000000 0.000000
vn 0.000000 1.000000 0.000000
vn 0.000000 1.000000 0.000000
vn 0.000000 1.000000 0.000000
vn 0.000000 1.000000 0.000000
f 1/1/1 2/2/2 3/3/3
f 3/3/3 2/2/2 4/4/4
f 3/3/5 4/4/6 5/9/7
f 5/9/7 4/4/6 6/6/8
f 5/5/9 6/10/10 7/7/11
f 7/7/11 6/10/10 8/8/12
f 9/11/13 10/12/14 11/14/15
f 11/14/15 10/12/14 12/13/16
f 11/15/17 12/16/18 13/18/19
f 13/18/19 12/16/18 14/17/20
f 13/19/21 14/20/22 15/22/23
f 15/22/23 14/20/22 16/21/24
f 15/23/25 16/24/26 9/26/27
f 9/26/27 16/24/26 10/25/28
f 15/27/29 9/11/30 13/28/31
f 13/28/31 9/11/30 11/14/32
f 17/29/33 18/30/34 19/32/35
f 19/32/35 18/30/34 20/31/36
f 19/32/37 20/31/38 21/34/39
f 21/34/39 20/31/38 22/33/40
f 21/35/41 22/36/42 23/38/43
f 23/38/43 22/36/42 24/37/44
f 25/39/45 26/40/46 27/42/47
f 27/42/47 26/40/46 28/41/48
f 27/43/49 28/44/50 29/46/51
f 29/46/51 28/44/50 30/45/52
f 29/47/53 30/48/54 31/50/55
f 31/50/55 30/48/54 32/49/56
f 31/51/57 32/52/58 25/54/59
f 25/54/59 32/52/58 26/53/60
f 31/55/61 25/39/62 29/56/63
f 29/56/63 25/39/62 27/42/64
