# This file uses centimeters as units for non-parametric coordinates.

mtllib terrainTest.mtl
g default
v -81.734478 -27.318407 81.734478
v -65.387583 -24.622037 81.734478
v -49.040689 -17.515251 81.734478
v -32.693789 -22.440534 81.734478
v -16.346895 -22.553266 81.734478
v 0.000000 -16.799393 81.734478
v 16.346900 -0.000000 81.734478
v 32.693789 -0.000000 81.734478
v 49.040689 -0.000000 81.734478
v 65.387588 -0.000000 81.734478
v 81.734478 -0.000000 81.734478
v -81.734478 -15.207748 65.387583
v -65.387583 -4.969063 65.387583
v -49.040689 -0.000000 65.387583
v -32.693789 -0.000000 65.387583
v -16.346895 -0.000000 65.387583
v 0.000000 -0.000000 65.387583
v 16.346900 -0.000000 65.387583
v 32.693789 -0.000000 65.387583
v 49.040689 -0.000000 65.387583
v 65.387588 -0.000000 65.387583
v 81.734478 -0.000000 65.387583
v -81.734478 -7.503409 49.040689
v -65.387583 -0.000000 49.040689
v -49.040689 -0.000000 49.040689
v -32.693789 -0.000000 49.040689
v -16.346895 -0.000000 49.040689
v 0.000000 -0.000000 49.040689
v 16.346900 2.386069 49.040689
v 32.693789 -0.000000 49.040689
v 49.040689 -0.000000 49.040689
v 65.387588 -0.000000 49.040689
v 81.734478 -0.000000 49.040689
v -81.734478 -0.000000 32.693789
v -65.387583 -0.000000 32.693789
v -49.040689 -0.000000 32.693789
v -32.693789 -0.000000 32.693789
v -16.346895 -0.000000 32.693789
v 0.000000 -0.000000 32.693789
v 16.346900 4.476913 32.693789
v 32.693789 0.919685 32.693789
v 49.040689 -0.000000 32.693789
v 65.387588 -0.000000 32.693789
v 81.734478 -0.000000 32.693789
v -81.734478 -0.000000 16.346895
v -65.387583 -0.000000 16.346895
v -49.040689 6.484750 16.346895
v -32.693789 3.205368 16.346895
v -16.346895 -0.000000 16.346895
v 0.000000 -0.000000 16.346895
v 16.346900 1.063827 16.346895
v 32.693789 -0.000000 16.346895
v 49.040689 -0.000000 16.346895
v 65.387588 -0.000000 16.346895
v 81.734478 -0.000000 16.346895
v -81.734478 0.000000 0.000000
v -65.387583 0.000000 0.000000
v -49.040689 6.055345 0.000000
v -32.693789 2.119032 0.000000
v -16.346895 0.000000 0.000000
v 0.000000 0.000000 0.000000
v 16.346900 0.000000 0.000000
v 32.693789 1.778487 0.000000
v 49.040689 0.000000 0.000000
v 65.387588 0.000000 0.000000
v 81.734478 0.000000 0.000000
v -81.734478 0.000000 -16.346900
v -65.387583 0.000000 -16.346900
v -49.040689 0.000000 -16.346900
v -32.693789 0.000000 -16.346900
v -16.346895 0.000000 -16.346900
v 0.000000 0.000000 -16.346900
v 16.346900 0.000000 -16.346900
v 32.693789 0.000000 -16.346900
v 49.040689 0.000000 -16.346900
v 65.387588 0.000000 -16.346900
v 81.734478 0.000000 -16.346900
v -81.734478 0.000000 -32.693789
v -65.387583 0.000000 -32.693789
v -49.040689 0.000000 -32.693789
v -32.693789 0.000000 -32.693789
v -16.346895 0.000000 -32.693789
v 0.000000 4.313085 -32.693789
v 16.346900 0.814473 -32.693789
v 32.693789 0.000000 -32.693789
v 49.040689 0.000000 -32.693789
v 65.387588 0.000000 -32.693789
v 81.734478 0.000000 -32.693789
v -81.734478 0.000000 -49.040689
v -65.387583 0.000000 -49.040689
v -49.040689 0.000000 -49.040689
v -32.693789 0.000000 -49.040689
v -16.346895 0.000000 -49.040689
v 0.000000 2.049258 -49.040689
v 16.346900 0.000000 -49.040689
v 32.693789 0.000000 -49.040689
v 49.040689 0.000000 -49.040689
v 65.387588 0.000000 -49.040689
v 81.734478 0.000000 -49.040689
v -81.734478 0.000000 -65.387588
v -65.387583 0.000000 -65.387588
v -49.040689 0.000000 -65.387588
v -32.693789 0.000000 -65.387588
v -16.346895 0.000000 -65.387588
v 0.000000 0.000000 -65.387588
v 16.346900 0.000000 -65.387588
v 32.693789 0.000000 -65.387588
v 49.040689 0.000000 -65.387588
v 65.387588 0.000000 -65.387588
v 81.734478 0.000000 -65.387588
v -81.734478 0.000000 -81.734478
v -65.387583 0.000000 -81.734478
v -49.040689 0.000000 -81.734478
v -32.693789 0.000000 -81.734478
v -16.346895 0.000000 -81.734478
v 0.000000 0.000000 -81.734478
v 16.346900 0.000000 -81.734478
v 32.693789 0.000000 -81.734478
v 49.040689 0.000000 -81.734478
v 65.387588 0.000000 -81.734478
v 81.734478 0.000000 -81.734478
vt 0.000000 0.000000
vt 0.100000 0.000000
vt 0.200000 0.000000
vt 0.300000 0.000000
vt 0.400000 0.000000
vt 0.500000 0.000000
vt 0.600000 0.000000
vt 0.700000 0.000000
vt 0.800000 0.000000
vt 0.900000 0.000000
vt 1.000000 0.000000
vt 0.000000 0.100000
vt 0.100000 0.100000
vt 0.200000 0.100000
vt 0.300000 0.100000
vt 0.400000 0.100000
vt 0.500000 0.100000
vt 0.600000 0.100000
vt 0.700000 0.100000
vt 0.800000 0.100000
vt 0.900000 0.100000
vt 1.000000 0.100000
vt 0.000000 0.200000
vt 0.100000 0.200000
vt 0.200000 0.200000
vt 0.300000 0.200000
vt 0.400000 0.200000
vt 0.500000 0.200000
vt 0.600000 0.200000
vt 0.700000 0.200000
vt 0.800000 0.200000
vt 0.900000 0.200000
vt 1.000000 0.200000
vt 0.000000 0.300000
vt 0.100000 0.300000
vt 0.200000 0.300000
vt 0.300000 0.300000
vt 0.400000 0.300000
vt 0.500000 0.300000
vt 0.600000 0.300000
vt 0.700000 0.300000
vt 0.800000 0.300000
vt 0.900000 0.300000
vt 1.000000 0.300000
vt 0.000000 0.400000
vt 0.100000 0.400000
vt 0.200000 0.400000
vt 0.300000 0.400000
vt 0.400000 0.400000
vt 0.500000 0.400000
vt 0.600000 0.400000
vt 0.700000 0.400000
vt 0.800000 0.400000
vt 0.900000 0.400000
vt 1.000000 0.400000
vt 0.000000 0.500000
vt 0.100000 0.500000
vt 0.200000 0.500000
vt 0.300000 0.500000
vt 0.400000 0.500000
vt 0.500000 0.500000
vt 0.600000 0.500000
vt 0.700000 0.500000
vt 0.800000 0.500000
vt 0.900000 0.500000
vt 1.000000 0.500000
vt 0.000000 0.600000
vt 0.100000 0.600000
vt 0.200000 0.600000
vt 0.300000 0.600000
vt 0.400000 0.600000
vt 0.500000 0.600000
vt 0.600000 0.600000
vt 0.700000 0.600000
vt 0.800000 0.600000
vt 0.900000 0.600000
vt 1.000000 0.600000
vt 0.000000 0.700000
vt 0.100000 0.700000
vt 0.200000 0.700000
vt 0.300000 0.700000
vt 0.400000 0.700000
vt 0.500000 0.700000
vt 0.600000 0.700000
vt 0.700000 0.700000
vt 0.800000 0.700000
vt 0.900000 0.700000
vt 1.000000 0.700000
vt 0.000000 0.800000
vt 0.100000 0.800000
vt 0.200000 0.800000
vt 0.300000 0.800000
vt 0.400000 0.800000
vt 0.500000 0.800000
vt 0.600000 0.800000
vt 0.700000 0.800000
vt 0.800000 0.800000
vt 0.900000 0.800000
vt 1.000000 0.800000
vt 0.000000 0.900000
vt 0.100000 0.900000
vt 0.200000 0.900000
vt 0.300000 0.900000
vt 0.400000 0.900000
vt 0.500000 0.900000
vt 0.600000 0.900000
vt 0.700000 0.900000
vt 0.800000 0.900000
vt 0.900000 0.900000
vt 1.000000 0.900000
vt 0.000000 1.000000
vt 0.100000 1.000000
vt 0.200000 1.000000
vt 0.300000 1.000000
vt 0.400000 1.000000
vt 0.500000 1.000000
vt 0.600000 1.000000
vt 0.700000 1.000000
vt 0.800000 1.000000
vt 0.900000 1.000000
vt 1.000000 1.000000
vn -0.272990 0.689993 0.670362
vn -0.257240 0.669121 0.697212
vn -0.295538 0.797923 0.525334
vn -0.346167 0.758034 0.552769
vn -0.074384 0.645202 0.760382
vn -0.070609 0.851661 0.519316
vn 0.043109 0.607515 0.793138
vn 0.032290 0.838165 0.544460
vn -0.047502 0.609618 0.791271
vn -0.036227 0.839817 0.541659
vn -0.211230 0.707449 0.674461
vn -0.171483 0.899211 0.402509
vn -0.241475 0.939883 0.241475
vn -0.125741 0.978836 0.161460
vn 0.000000 1.000000 0.000000
vn 0.018240 0.999667 0.018240
vn 0.000000 1.000000 0.000000
vn 0.000000 1.000000 0.000000
vn 0.000000 1.000000 0.000000
vn 0.000000 1.000000 0.000000
vn 0.000000 1.000000 0.000000
vn 0.000000 1.000000 0.000000
vn -0.215794 0.959553 0.180806
vn -0.359108 0.889546 0.282399
vn -0.037942 0.998559 0.037942
vn 0.000000 1.000000 0.000000
vn 0.000000 1.000000 0.000000
vn -0.070508 0.996927 0.034128
vn -0.007100 0.997134 0.075315
vn 0.070325 0.996365 0.048067
vn 0.007032 0.999951 0.007032
vn 0.000000 1.000000 0.000000
vn 0.000000 1.000000 0.000000
vn -0.105760 0.988752 0.105760
vn -0.113271 0.987086 0.113271
vn -0.024318 0.992144 0.122713
vn 0.049288 0.993964 0.098013
vn 0.024496 0.999400 0.024496
vn -0.094419 0.995482 -0.010065
vn -0.013585 0.999715 -0.019632
vn 0.094735 0.995451 -0.010113
vn 0.014064 0.999901 -0.000000
vn 0.000000 1.000000 0.000000
vn 0.000000 1.000000 0.000000
vn -0.143811 0.988546 0.045773
vn 0.000000 1.000000 0.000000
vn -0.063469 0.992540 0.104093
vn 0.143638 0.986488 0.078797
vn 0.065078 0.997749 0.016167
vn -0.050409 0.998144 -0.034170
vn -0.020552 0.997860 -0.062081
vn 0.050456 0.998504 -0.021051
vn 0.020627 0.999766 0.006565
vn 0.000000 1.000000 0.000000
vn 0.000000 1.000000 0.000000
vn -0.140609 0.988850 -0.049034
vn 0.000000 1.000000 0.000000
vn -0.056450 0.991231 -0.119476
vn 0.140036 0.985285 -0.097998
vn 0.056809 0.998085 -0.024464
vn -0.008134 0.999934 -0.008134
vn -0.027191 0.999497 -0.016304
vn 0.008134 0.999934 -0.008134
vn 0.027189 0.999630 0.000000
vn 0.000000 1.000000 0.000000
vn 0.000000 1.000000 0.000000
vn -0.046205 0.997863 -0.046205
vn 0.000000 1.000000 0.000000
vn -0.016106 0.994003 -0.108158
vn 0.046112 0.995856 -0.078385
vn -0.016773 0.999719 0.016773
vn -0.006212 0.997385 0.072001
vn 0.019368 0.999306 0.031815
vn 0.006227 0.999761 -0.020966
vn 0.013597 0.999815 -0.013597
vn 0.000000 1.000000 0.000000
vn 0.000000 1.000000 0.000000
vn 0.000000 1.000000 0.000000
vn 0.000000 1.000000 0.000000
vn 0.000000 1.000000 0.000000
vn 0.000000 1.000000 0.000000
vn -0.081351 0.996563 0.015616
vn -0.012033 0.999468 0.030319
vn 0.081581 0.996543 0.015680
vn 0.012455 0.999922 0.000000
vn 0.000000 1.000000 0.000000
vn 0.000000 1.000000 0.000000
vn 0.000000 1.000000 0.000000
vn 0.000000 1.000000 0.000000
vn 0.000000 1.000000 0.000000
vn 0.000000 1.000000 0.000000
vn 0.000000 1.000000 0.000000
vn -0.064154 0.997398 -0.032895
vn -0.006276 0.997378 -0.072099
vn 0.064020 0.996922 -0.045249
vn 0.006228 0.999961 -0.006228
vn 0.000000 1.000000 0.000000
vn 0.000000 1.000000 0.000000
vn 0.000000 1.000000 0.000000
vn 0.000000 1.000000 0.000000
vn 0.000000 1.000000 0.000000
vn 0.000000 1.000000 0.000000
vn 0.000000 1.000000 0.000000
vn -0.015666 0.999755 -0.015666
vn -0.000000 0.999509 -0.031325
vn 0.015666 0.999755 -0.015666
vn 0.000000 1.000000 0.000000
vn 0.000000 1.000000 0.000000
vn 0.000000 1.000000 0.000000
vn 0.000000 1.000000 0.000000
vn 0.000000 1.000000 0.000000
vn 0.000000 1.000000 0.000000
vn 0.000000 1.000000 0.000000
vn 0.000000 1.000000 0.000000
vn 0.000000 1.000000 0.000000
vn 0.000000 1.000000 0.000000
vn 0.000000 1.000000 0.000000
vn 0.000000 1.000000 0.000000
vn 0.000000 1.000000 0.000000
vn 0.000000 1.000000 0.000000
vn 0.000000 1.000000 0.000000
s 1
g pPlane1
usemtl initialShadingGroup
f 1/1/1 2/2/2 13/13/3 12/12/4
f 2/2/2 3/3/5 14/14/6 13/13/3
f 3/3/5 4/4/7 15/15/8 14/14/6
f 4/4/7 5/5/9 16/16/10 15/15/8
f 5/5/9 6/6/11 17/17/12 16/16/10
f 6/6/11 7/7/13 18/18/14 17/17/12
f 7/7/13 8/8/15 19/19/16 18/18/14
f 8/8/15 9/9/17 20/20/18 19/19/16
f 9/9/17 10/10/19 21/21/20 20/20/18
f 10/10/19 11/11/21 22/22/22 21/21/20
f 12/12/4 13/13/3 24/24/23 23/23/24
f 13/13/3 14/14/6 25/25/25 24/24/23
f 14/14/6 15/15/8 26/26/26 25/25/25
f 15/15/8 16/16/10 27/27/27 26/26/26
f 16/16/10 17/17/12 28/28/28 27/27/27
f 17/17/12 18/18/14 29/29/29 28/28/28
f 18/18/14 19/19/16 30/30/30 29/29/29
f 19/19/16 20/20/18 31/31/31 30/30/30
f 20/20/18 21/21/20 32/32/32 31/31/31
f 21/21/20 22/22/22 33/33/33 32/32/32
f 23/23/24 24/24/23 35/35/34 34/34/35
f 24/24/23 25/25/25 36/36/36 35/35/34
f 25/25/25 26/26/26 37/37/37 36/36/36
f 26/26/26 27/27/27 38/38/38 37/37/37
f 27/27/27 28/28/28 39/39/39 38/38/38
f 28/28/28 29/29/29 40/40/40 39/39/39
f 29/29/29 30/30/30 41/41/41 40/40/40
f 30/30/30 31/31/31 42/42/42 41/41/41
f 31/31/31 32/32/32 43/43/43 42/42/42
f 32/32/32 33/33/33 44/44/44 43/43/43
f 34/34/35 35/35/34 46/46/45 45/45/46
f 35/35/34 36/36/36 47/47/47 46/46/45
f 36/36/36 37/37/37 48/48/48 47/47/47
f 37/37/37 38/38/38 49/49/49 48/48/48
f 38/38/38 39/39/39 50/50/50 49/49/49
f 39/39/39 40/40/40 51/51/51 50/50/50
f 40/40/40 41/41/41 52/52/52 51/51/51
f 41/41/41 42/42/42 53/53/53 52/52/52
f 42/42/42 43/43/43 54/54/54 53/53/53
f 43/43/43 44/44/44 55/55/55 54/54/54
f 45/45/46 46/46/45 57/57/56 56/56/57
f 46/46/45 47/47/47 58/58/58 57/57/56
f 47/47/47 48/48/48 59/59/59 58/58/58
f 48/48/48 49/49/49 60/60/60 59/59/59
f 49/49/49 50/50/50 61/61/61 60/60/60
f 50/50/50 51/51/51 62/62/62 61/61/61
f 51/51/51 52/52/52 63/63/63 62/62/62
f 52/52/52 53/53/53 64/64/64 63/63/63
f 53/53/53 54/54/54 65/65/65 64/64/64
f 54/54/54 55/55/55 66/66/66 65/65/65
f 56/56/57 57/57/56 68/68/67 67/67/68
f 57/57/56 58/58/58 69/69/69 68/68/67
f 58/58/58 59/59/59 70/70/70 69/69/69
f 59/59/59 60/60/60 71/71/71 70/70/70
f 60/60/60 61/61/61 72/72/72 71/71/71
f 61/61/61 62/62/62 73/73/73 72/72/72
f 62/62/62 63/63/63 74/74/74 73/73/73
f 63/63/63 64/64/64 75/75/75 74/74/74
f 64/64/64 65/65/65 76/76/76 75/75/75
f 65/65/65 66/66/66 77/77/77 76/76/76
f 67/67/68 68/68/67 79/79/78 78/78/79
f 68/68/67 69/69/69 80/80/80 79/79/78
f 69/69/69 70/70/70 81/81/81 80/80/80
f 70/70/70 71/71/71 82/82/82 81/81/81
f 71/71/71 72/72/72 83/83/83 82/82/82
f 72/72/72 73/73/73 84/84/84 83/83/83
f 73/73/73 74/74/74 85/85/85 84/84/84
f 74/74/74 75/75/75 86/86/86 85/85/85
f 75/75/75 76/76/76 87/87/87 86/86/86
f 76/76/76 77/77/77 88/88/88 87/87/87
f 78/78/79 79/79/78 90/90/89 89/89/90
f 79/79/78 80/80/80 91/91/91 90/90/89
f 80/80/80 81/81/81 92/92/92 91/91/91
f 81/81/81 82/82/82 93/93/93 92/92/92
f 82/82/82 83/83/83 94/94/94 93/93/93
f 83/83/83 84/84/84 95/95/95 94/94/94
f 84/84/84 85/85/85 96/96/96 95/95/95
f 85/85/85 86/86/86 97/97/97 96/96/96
f 86/86/86 87/87/87 98/98/98 97/97/97
f 87/87/87 88/88/88 99/99/99 98/98/98
f 89/89/90 90/90/89 101/101/100 100/100/101
f 90/90/89 91/91/91 102/102/102 101/101/100
f 91/91/91 92/92/92 103/103/103 102/102/102
f 92/92/92 93/93/93 104/104/104 103/103/103
f 93/93/93 94/94/94 105/105/105 104/104/104
f 94/94/94 95/95/95 106/106/106 105/105/105
f 95/95/95 96/96/96 107/107/107 106/106/106
f 96/96/96 97/97/97 108/108/108 107/107/107
f 97/97/97 98/98/98 109/109/109 108/108/108
f 98/98/98 99/99/99 110/110/110 109/109/109
f 100/100/101 101/101/100 112/112/111 111/111/112
f 101/101/100 102/102/102 113/113/113 112/112/111
f 102/102/102 103/103/103 114/114/114 113/113/113
f 103/103/103 104/104/104 115/115/115 114/114/114
f 104/104/104 105/105/105 116/116/116 115/115/115
f 105/105/105 106/106/106 117/117/117 116/116/116
f 106/106/106 107/107/107 118/118/118 117/117/117
f 107/107/107 108/108/108 119/119/119 118/118/118
f 108/108/108 109/109/109 120/120/120 119/119/119
f 109/109/109 110/110/110 121/121/121 120/120/120
